<mxfile host="65bd71144e">
    <diagram name="Page-1" id="AHB5HbT78Cxvnr6Cilpf">
        <mxGraphModel dx="708" dy="608" grid="1" gridSize="10" guides="1" tooltips="1" connect="1" arrows="1" fold="1" page="1" pageScale="1" pageWidth="850" pageHeight="1100" math="0" shadow="0">
            <root>
                <mxCell id="0"/>
                <mxCell id="1" parent="0"/>
                <mxCell id="aydbZtYHvP855hGaaAMt-1" value="Reconcilation" style="rounded=0;whiteSpace=wrap;html=1;" parent="1" vertex="1">
                    <mxGeometry x="280" y="480" width="120" height="80" as="geometry"/>
                </mxCell>
                <mxCell id="aydbZtYHvP855hGaaAMt-2" value="QKD" style="rounded=0;whiteSpace=wrap;html=1;" parent="1" vertex="1">
                    <mxGeometry x="280" y="680" width="120" height="40" as="geometry"/>
                </mxCell>
                <mxCell id="aydbZtYHvP855hGaaAMt-3" value="Lightweight DB" style="rounded=0;whiteSpace=wrap;html=1;" parent="1" vertex="1">
                    <mxGeometry x="280" y="600" width="120" height="40" as="geometry"/>
                </mxCell>
                <mxCell id="aydbZtYHvP855hGaaAMt-4" value="" style="endArrow=classic;html=1;rounded=0;entryX=0.5;entryY=1;entryDx=0;entryDy=0;exitX=0.5;exitY=0;exitDx=0;exitDy=0;" parent="1" source="aydbZtYHvP855hGaaAMt-2" target="aydbZtYHvP855hGaaAMt-3" edge="1">
                    <mxGeometry width="50" height="50" relative="1" as="geometry">
                        <mxPoint x="330" y="680" as="sourcePoint"/>
                        <mxPoint x="380" y="630" as="targetPoint"/>
                    </mxGeometry>
                </mxCell>
                <mxCell id="aydbZtYHvP855hGaaAMt-5" value="" style="endArrow=classic;html=1;rounded=0;exitX=0.5;exitY=1;exitDx=0;exitDy=0;entryX=0.5;entryY=0;entryDx=0;entryDy=0;" parent="1" source="aydbZtYHvP855hGaaAMt-1" target="aydbZtYHvP855hGaaAMt-3" edge="1">
                    <mxGeometry width="50" height="50" relative="1" as="geometry">
                        <mxPoint x="320" y="650" as="sourcePoint"/>
                        <mxPoint x="370" y="600" as="targetPoint"/>
                    </mxGeometry>
                </mxCell>
                <mxCell id="aydbZtYHvP855hGaaAMt-6" value="&lt;h1 style=&quot;margin-top: 0px;&quot;&gt;Material Exchange&lt;/h1&gt;&lt;div&gt;Exchange making use of a ligthweight database.&lt;/div&gt;&lt;div&gt;&lt;br&gt;&lt;/div&gt;&lt;div&gt;QKD stores raw key on DB.&lt;br&gt;&lt;/div&gt;&lt;div&gt;Reconcilation layer fetchs raw keys from DB and stores them in memory for the reconcilation process.&amp;nbsp;&lt;/div&gt;&lt;div&gt;&lt;br&gt;&lt;/div&gt;&lt;div&gt;- Fault tolerant&lt;/div&gt;&lt;div&gt;- Features of DB:&lt;/div&gt;&lt;div&gt;&lt;span style=&quot;white-space: pre;&quot;&gt;&#9;&lt;/span&gt;-&amp;nbsp;TTL&lt;/div&gt;&lt;div&gt;&lt;span style=&quot;white-space: pre;&quot;&gt;&#9;&lt;/span&gt;- Statistics&lt;br&gt;&lt;/div&gt;&lt;div&gt;&lt;span style=&quot;white-space: pre;&quot;&gt;&#9;&lt;/span&gt;- Tagging&lt;/div&gt;&lt;div&gt;- Reduced Devolpment cost&lt;/div&gt;&lt;div&gt;- Perfomant and Reliable.&lt;/div&gt;&lt;div&gt;&lt;br&gt;&lt;/div&gt;&lt;div&gt;- External dependecy&lt;/div&gt;&lt;div&gt;&lt;br&gt;&lt;/div&gt;&lt;div&gt;&lt;br&gt;&lt;/div&gt;&lt;div&gt;&lt;br&gt;&lt;/div&gt;" style="text;html=1;whiteSpace=wrap;overflow=hidden;rounded=0;" parent="1" vertex="1">
                    <mxGeometry x="430" y="480" width="240" height="320" as="geometry"/>
                </mxCell>
                <mxCell id="aydbZtYHvP855hGaaAMt-7" value="Store&amp;nbsp;" style="text;html=1;align=center;verticalAlign=middle;resizable=0;points=[];autosize=1;strokeColor=none;fillColor=none;" parent="1" vertex="1">
                    <mxGeometry x="340" y="640" width="60" height="30" as="geometry"/>
                </mxCell>
                <mxCell id="aydbZtYHvP855hGaaAMt-8" value="Get" style="text;html=1;align=center;verticalAlign=middle;resizable=0;points=[];autosize=1;strokeColor=none;fillColor=none;" parent="1" vertex="1">
                    <mxGeometry x="340" y="560" width="40" height="30" as="geometry"/>
                </mxCell>
            </root>
        </mxGraphModel>
    </diagram>
</mxfile>